# xmcd
#
# Track frame offsets:
#	150
#	20264
#	38939
#	62921
#	80621
#	102623
#	120369
#	168615
#	182643
#	199135
#	219429
#	244929
#	268249
#	285486
#	312337
#
# Disc length: 4388 seconds
#
# Revision: 0
# Processed by: cddbd v1.5.1PL0 Copyright (c) Steve Scherf et al.
# Submitted via: dBpowerAMP V4.0
#
DISCID=dd11220f
DTITLE=Billy McEwen Band - Brewed In Blackrock
DYEAR=2002
DGENRE=Blues
TTITLE0=Work To Do
TTITLE1=You Didn't Think About That
TTITLE2=How Blue
TTITLE3=Blue Boy
TTITLE4=Caldonia
TTITLE5=What Does It Take
TTITLE6=Knock On Wood/Mustang Sally/How Sweet It Is Medley
TTITLE7=Bad Sign
TTITLE8=Who's Makin' Love
TTITLE9=You Can Leave Your Hat On
TTITLE10=Good Clean Fun
TTITLE11=Tell It Like It Is
TTITLE12=It All Comes Back
TTITLE13=Hold On/Soul Man Medley
TTITLE14=Shot Gun
EXTD=www.billymcewenband.com\nRecorded Live at the Sportsmen's Tavern, Buffalo NY 10/14/01
EXTT0=
EXTT1=
EXTT2=
EXTT3=
EXTT4=
EXTT5=
EXTT6=
EXTT7=
EXTT8=
EXTT9=
EXTT10=
EXTT11=
EXTT12=
EXTT13=
EXTT14=
PLAYORDER=
